<svg id="Layer_1" data-name="Layer 1" xmlns="http://www.w3.org/2000/svg" viewBox="0 0 193.39 191.83"><defs><style>.cls-1{fill:#0088be;}.cls-2{fill:#75a401;}.cls-3{fill:#003a5c;}.cls-4{fill:#3fa6ce;}.cls-5{fill:#a8c661;}.cls-6{fill:#19a2a2;}</style></defs><path class="cls-1" d="M84.45,185.41a5.79,5.79,0,0,0-2.52-.49A90.77,90.77,0,0,1,5.86,116.59,94.35,94.35,0,0,1,3.6,103.11a3,3,0,0,1,2.58-3.32,2.85,2.85,0,0,1,3.23,2.52c.44,3.5.86,7,1.61,10.46a84.86,84.86,0,0,0,56.94,63,87.44,87.44,0,0,0,18.46,3.77,2.88,2.88,0,0,1,2.74,2.69,3,3,0,0,1-2.13,3c-.54.22-1.13-.08-1.67.17Z"/><path class="cls-2" d="M101.25,185.41c-.87-.54-1.77-1-2.08-2.15a2.91,2.91,0,0,1,2.47-3.73,85.33,85.33,0,0,0,54.52-26.69,83,83,0,0,0,14-20.11,3,3,0,1,1,5.27,2.63,89.94,89.94,0,0,1-22.4,28.57,91.05,91.05,0,0,1-39,19.57,78.62,78.62,0,0,1-9.16,1.58c-.33,0-.74-.08-1,.33h-.91a1,1,0,0,0-.91,0Z"/><path class="cls-3" d="M190.36,111.82c0-.46,0-.91,0-1.37a1.67,1.67,0,0,1-.09-.55v-.28s0-.07,0-.1a12.27,12.27,0,0,0-1.62-3.84A11.8,11.8,0,0,0,174.07,101a11.87,11.87,0,0,0,4.42,22.85,12.16,12.16,0,0,0,11.71-9.21c.05-.21,0-.47.14-.66a10.84,10.84,0,0,0,0-1.51A2.51,2.51,0,0,1,190.36,111.82Z"/><path class="cls-4" d="M85.36,185.41c.53-.36,1.11-.12,1.67-.17a.47.47,0,0,0,0,.17Z"/><path class="cls-5" d="M102.17,185.41a.61.61,0,0,1,.91,0Z"/><path class="cls-3" d="M150.39,88.39v32.67c0,2-.83,2.81-2.82,2.81h-7.31a2.36,2.36,0,0,1-2.61-2.5c0-.21,0-.43,0-.64V55.92A3.36,3.36,0,0,1,138,54a2.41,2.41,0,0,1,2.14-1.17h7.48a2.44,2.44,0,0,1,2.76,2.73Z"/><path class="cls-6" d="M184.7,87.7c.13,2.8-.57,4-2.07,4.38a2.92,2.92,0,0,1-3.73-2.78,85,85,0,0,0-76.67-79c-2-.21-3.17-1.54-3-3.3a3,3,0,0,1,3.58-2.56,92.75,92.75,0,0,1,14.69,2.66A90.94,90.94,0,0,1,174.41,52.4a89.06,89.06,0,0,1,9.8,30.94C184.42,85.06,184.6,86.78,184.7,87.7Z"/><path class="cls-3" d="M3.67,86.11A90.71,90.71,0,0,1,56.4,12.21,88.91,88.91,0,0,1,84.24,4.59c.6-.07,1.21-.16,1.82-.17a2.9,2.9,0,0,1,3,2.78,2.89,2.89,0,0,1-2.72,3.08,85,85,0,0,0-20.43,4.43,85.09,85.09,0,0,0-49,44.56A83.29,83.29,0,0,0,9.71,85.05c-.06.52-.11,1-.15,1.55a3,3,0,1,1-5.89-.49Z"/><path class="cls-3" d="M129.67,117.92c0-12.75,0-25.5,0-38.26,0-1.85-.83-2.69-2.66-2.7h-2.65c-1.69,0-2.32.45-2.87,2.08-.42,1.24-.82,2.48-1.29,3.9-.61-.63-1.06-1.16-1.57-1.64a21.14,21.14,0,0,0-31.37,3.64c-5.75,8.26-6.38,17.31-2.57,26.48,3.27,7.88,9.48,12.31,18,13.38a31.21,31.21,0,0,0,13.49-1.46c.58-.19.86-.23.83.54,0,1.22-.06,2.44-.2,3.65-.52,4.16-2.62,6.69-6.42,7.55a18.07,18.07,0,0,1-10-.51A33.34,33.34,0,0,1,94.83,132a1.92,1.92,0,0,0-3,1c-.88,1.87-1.72,3.75-2.59,5.63s-.61,2.75,1.13,3.79c7.33,4.34,15.12,5.83,23.48,3.72a20.53,20.53,0,0,0,15.58-17.58A84.45,84.45,0,0,0,129.67,117.92ZM116.54,111c-4.1,2.11-8.39,3.1-12.94,1.82a10,10,0,0,1-6.63-6c-2.36-5.61-2-11.06,1.89-15.88,4.65-5.72,15-4.14,17.94,2.62A2.43,2.43,0,0,1,117,94.7V110C117,110.44,117,110.8,116.54,111Z"/><path class="cls-3" d="M78.13,89.84A20.58,20.58,0,0,0,62.45,76.48,30.13,30.13,0,0,0,46.9,77.64c-.76.24-1,.25-1-.68,0-7.18,0-14.37,0-21.55a2.33,2.33,0,0,0-2.58-2.59H36.22c-2.19,0-3,.78-3,2.95V121.3a2.29,2.29,0,0,0,2.59,2.57c1,0,1.89-.05,2.83,0a2.29,2.29,0,0,0,2.25-1.26,7.26,7.26,0,0,0,.67-1.69c.28-.91.57-1.83.86-2.76a1.26,1.26,0,0,1,.25.13c.13.12.25.26.37.39a20.13,20.13,0,0,0,13.6,6.24c8.64.45,15.26-3.22,19.66-10.54C81,106.6,81.4,98.23,78.13,89.84Zm-13.4,19.27c-4.54,6.62-15.2,5.27-18.52-1.57a2.75,2.75,0,0,1-.29-1.31c0-2.56,0-5.12,0-7.67V90.89c0-.36-.06-.71.37-.93,4.44-2.26,9-3.36,13.88-1.53,3.65,1.37,5.68,4.29,6.62,7.95A15.06,15.06,0,0,1,64.73,109.11Z"/></svg>