<svg id="Layer_1" data-name="Layer 1" xmlns="http://www.w3.org/2000/svg" viewBox="0 0 1013.57 281.04" xmlns:c2pa="http://c2pa.org/manifest"><metadata><c2pa:manifest>AAAWgmp1bWIAAAAeanVtZGMycGEAEQAQgAAAqgA4m3EDYzJwYQAAABZcanVtYgAAAEdqdW1kYzJtYQARABCAAACqADibcQN1cm46YzJwYTo4MzAyYTkxMi05ZTc3LTQyODgtOTA1Ni02NDIwODQ1YzRiM2IAAAADl2p1bWIAAAApanVtZGMyYXMAEQAQgAAAqgA4m3EDYzJwYS5hc3NlcnRpb25zAAAAALxqdW1iAAAARGp1bWRjYm9yABEAEIAAAKoAOJtxE2MycGEuaW5ncmVkaWVudC52MwAAAAAYYzJzaG/dd6dn7eaPe8cJVY+Z7J0AAABwY2JvcqNpZGM6Zm9ybWF0bWltYWdlL3N2Zyt4bWxqaW5zdGFuY2VJRHgseG1wOmlpZDo5NzhjNzA0Zi0wOTg4LTRmMzAtYjgxNy00NzMxZjI5OTM5ZmVscmVsYXRpb25zaGlwaHBhcmVudE9mAAAB4mp1bWIAAABBanVtZGNib3IAEQAQgAAAqgA4m3ETYzJwYS5hY3Rpb25zLnYyAAAAABhjMnNo/AYNJw6RAhKhno5aONprpAAAAZljYm9yomdhY3Rpb25zgqJmYWN0aW9ua2MycGEub3BlbmVkanBhcmFtZXRlcnOha2luZ3JlZGllbnRzgaJjdXJseC1zZWxmI2p1bWJmPWMycGEuYXNzZXJ0aW9ucy9jMnBhLmluZ3JlZGllbnQudjNkaGFzaFggjeC3xWilFGAB7fngGMwlp+GuLdm77IYT6fVjZJsdyw+kZmFjdGlvbngdY29tLmFudGhyb3BpYy5jbGF1ZGUucHJvdmlkZWRqcGFyYW1ldGVyc6F4H2NvbS5hbnRocm9waWMub3JpZ2luLWNvbmZpZGVuY2VndW5rbm93bmtkZXNjcmlwdGlvbnhmQ2xhdWRlIHByb3ZpZGVkIHRoaXMgZmlsZSBhdCB0aGUgcmVxdWVzdCBvZiBhIHVzZXIgYW5kIG1heSBoYXZlIGNyZWF0ZWQgb3IgbW9kaWZpZWQgdGhlIGZpbGUgY29udGVudHMubXNvZnR3YXJlQWdlbnShZG5hbWVmQ2xhdWRlcmFsbEFjdGlvbnNJbmNsdWRlZPUAAADIanVtYgAAAEBqdW1kY2JvcgARABCAAACqADibcRNjMnBhLmhhc2guZGF0YQAAAAAYYzJzaMMAOGDnZGXbodKzLdyJQeEAAACAY2JvcqVjYWxnZnNoYTI1NmNwYWRNAAAAAAAAAAAAAAAAAGRoYXNoWCDkC4XMs7PccSEy9eiyrzLTyraApyU5vXQtZ8yMdEz+cGRuYW1lbmp1bWJmIG1hbmlmZXN0amV4Y2x1c2lvbnOBomVzdGFydBilZmxlbmd0aBkeBAAAAj5qdW1iAAAAJ2p1bWRjMmNsABEAEIAAAKoAOJtxA2MycGEuY2xhaW0udjIAAAACD2Nib3KlY2FsZ2ZzaGEyNTZpc2lnbmF0dXJleE1zZWxmI2p1bWJmPS9jMnBhL3VybjpjMnBhOjgzMDJhOTEyLTllNzctNDI4OC05MDU2LTY0MjA4NDVjNGIzYi9jMnBhLnNpZ25hdHVyZWppbnN0YW5jZUlEeCx4bXA6aWlkOmY4ZjBmNGU2LTE5NjYtNDljMC05MjYzLWM4MDJhZjUwMGQ3M3JjcmVhdGVkX2Fzc2VydGlvbnODomN1cmx4LXNlbGYjanVtYmY9YzJwYS5hc3NlcnRpb25zL2MycGEuaW5ncmVkaWVudC52M2RoYXNoWCCN4LfFaKUUYAHt+eAYzCWn4a4t2bvshhPp9WNkmx3LD6JjdXJseCpzZWxmI2p1bWJmPWMycGEuYXNzZXJ0aW9ucy9jMnBhLmFjdGlvbnMudjJkaGFzaFggaJN6OvDGFIfCiQSEqxp0S5Nwq2Cb8pe3OEV4+s3FZkSiY3VybHgpc2VsZiNqdW1iZj1jMnBhLmFzc2VydGlvbnMvYzJwYS5oYXNoLmRhdGFkaGFzaFggGNVatX/n7w1OyxJC64ta1fepCS/hgFMwcW9eYEFW4tp0Y2xhaW1fZ2VuZXJhdG9yX2luZm+jZG5hbWVvQW50aHJvcGljIEZpbGVzZ3ZlcnNpb25lMS4wLjBrc3BlY1ZlcnNpb25lMi40LjAAABA4anVtYgAAAChqdW1kYzJjcwARABCAAACqADibcQNjMnBhLnNpZ25hdHVyZQAAABAIY2JvctKEWQISogEmGCFZAgowggIGMIIBjaADAgECAhRA5aAK7sI50L64g/oGQgU9Z1UTADAKBggqhkjOPQQDAzBJMRcwFQYDVQQKEw5BbnRocm9waWMsIFBCQzEuMCwGA1UEAxMlQW50aHJvcGljIENvbnRlbnQgQ3JlZGVudGlhbHMgUm9vdCBDQTAeFw0yNjA4MDcxODQzNTZaFw0yODA4MDYxOTQzNTZaMEQxFzAVBgNVBAoTDkFudGhyb3BpYywgUEJDMSkwJwYDVQQDEyBBbnRocm9waWMgQ2xhdWRlIENvbnRlbnQgU2lnbmluZzBZMBMGByqGSM49AgEGCCqGSM49AwEHA0IABJh6CmvLUBgFFNU0vUKlOVtE6djd17L5SuwX0LemFisBM3dkd/3cyjxFA3Qo5S46fX0/ihY0VZ7mfb9KF703t5OjWDBWMA4GA1UdDwEB/wQEAwIHgDAVBgNVHSUEDjAMBgorBgEEAYPoXgIBMAwGA1UdEwEB/wQCMAAwHwYDVR0jBBgwFoAUzlHiBIFOZFsj+OPEz5o+nMHXXMIwCgYIKoZIzj0EAwMDZwAwZAIwMXMdFJ4BetLLVY7ORuE9noqbbAZOZn/aArXyTwFAZfKrPzxF2vPoJNf1+UCdg1XGAjBwX1zd9WGqYkqmL5SFqw1QySjr1zJfpJM9+1rdDwSPLMOPOjKuiXjoU/pUUeG9RwmhY3BhZFkNngAAAAAAAAAAAAAAAAAAAAAAAAAAAAAAAAAAAAAAAAAAAAAAAAAAAAAAAAAAAAAAAAAAAAAAAAAAAAAAAAAAAAAAAAAAAAAAAAAAAAAAAAAAAAAAAAAAAAAAAAAAAAAAAAAAAAAAAAAAAAAAAAAAAAAAAAAAAAAAAAAAAAAAAAAAAAAAAAAAAAAAAAAAAAAAAAAAAAAAAAAAAAAAAAAAAAAAAAAAAAAAAAAAAAAAAAAAAAAAAAAAAAAAAAAAAAAAAAAAAAAAAAAAAAAAAAAAAAAAAAAAAAAAAAAAAAAAAAAAAAAAAAAAAAAAAAAAAAAAAAAAAAAAAAAAAAAAAAAAAAAAAAAAAAAAAAAAAAAAAAAAAAAAAAAAAAAAAAAAAAAAAAAAAAAAAAAAAAAAAAAAAAAAAAAAAAAAAAAAAAAAAAAAAAAAAAAAAAAAAAAAAAAAAAAAAAAAAAAAAAAAAAAAAAAAAAAAAAAAAAAAAAAAAAAAAAAAAAAAAAAAAAAAAAAAAAAAAAAAAAAAAAAAAAAAAAAAAAAAAAAAAAAAAAAAAAAAAAAAAAAAAAAAAAAAAAAAAAAAAAAAAAAAAAAAAAAAAAAAAAAAAAAAAAAAAAAAAAAAAAAAAAAAAAAAAAAAAAAAAAAAAAAAAAAAAAAAAAAAAAAAAAAAAAAAAAAAAAAAAAAAAAAAAAAAAAAAAAAAAAAAAAAAAAAAAAAAAAAAAAAAAAAAAAAAAAAAAAAAAAAAAAAAAAAAAAAAAAAAAAAAAAAAAAAAAAAAAAAAAAAAAAAAAAAAAAAAAAAAAAAAAAAAAAAAAAAAAAAAAAAAAAAAAAAAAAAAAAAAAAAAAAAAAAAAAAAAAAAAAAAAAAAAAAAAAAAAAAAAAAAAAAAAAAAAAAAAAAAAAAAAAAAAAAAAAAAAAAAAAAAAAAAAAAAAAAAAAAAAAAAAAAAAAAAAAAAAAAAAAAAAAAAAAAAAAAAAAAAAAAAAAAAAAAAAAAAAAAAAAAAAAAAAAAAAAAAAAAAAAAAAAAAAAAAAAAAAAAAAAAAAAAAAAAAAAAAAAAAAAAAAAAAAAAAAAAAAAAAAAAAAAAAAAAAAAAAAAAAAAAAAAAAAAAAAAAAAAAAAAAAAAAAAAAAAAAAAAAAAAAAAAAAAAAAAAAAAAAAAAAAAAAAAAAAAAAAAAAAAAAAAAAAAAAAAAAAAAAAAAAAAAAAAAAAAAAAAAAAAAAAAAAAAAAAAAAAAAAAAAAAAAAAAAAAAAAAAAAAAAAAAAAAAAAAAAAAAAAAAAAAAAAAAAAAAAAAAAAAAAAAAAAAAAAAAAAAAAAAAAAAAAAAAAAAAAAAAAAAAAAAAAAAAAAAAAAAAAAAAAAAAAAAAAAAAAAAAAAAAAAAAAAAAAAAAAAAAAAAAAAAAAAAAAAAAAAAAAAAAAAAAAAAAAAAAAAAAAAAAAAAAAAAAAAAAAAAAAAAAAAAAAAAAAAAAAAAAAAAAAAAAAAAAAAAAAAAAAAAAAAAAAAAAAAAAAAAAAAAAAAAAAAAAAAAAAAAAAAAAAAAAAAAAAAAAAAAAAAAAAAAAAAAAAAAAAAAAAAAAAAAAAAAAAAAAAAAAAAAAAAAAAAAAAAAAAAAAAAAAAAAAAAAAAAAAAAAAAAAAAAAAAAAAAAAAAAAAAAAAAAAAAAAAAAAAAAAAAAAAAAAAAAAAAAAAAAAAAAAAAAAAAAAAAAAAAAAAAAAAAAAAAAAAAAAAAAAAAAAAAAAAAAAAAAAAAAAAAAAAAAAAAAAAAAAAAAAAAAAAAAAAAAAAAAAAAAAAAAAAAAAAAAAAAAAAAAAAAAAAAAAAAAAAAAAAAAAAAAAAAAAAAAAAAAAAAAAAAAAAAAAAAAAAAAAAAAAAAAAAAAAAAAAAAAAAAAAAAAAAAAAAAAAAAAAAAAAAAAAAAAAAAAAAAAAAAAAAAAAAAAAAAAAAAAAAAAAAAAAAAAAAAAAAAAAAAAAAAAAAAAAAAAAAAAAAAAAAAAAAAAAAAAAAAAAAAAAAAAAAAAAAAAAAAAAAAAAAAAAAAAAAAAAAAAAAAAAAAAAAAAAAAAAAAAAAAAAAAAAAAAAAAAAAAAAAAAAAAAAAAAAAAAAAAAAAAAAAAAAAAAAAAAAAAAAAAAAAAAAAAAAAAAAAAAAAAAAAAAAAAAAAAAAAAAAAAAAAAAAAAAAAAAAAAAAAAAAAAAAAAAAAAAAAAAAAAAAAAAAAAAAAAAAAAAAAAAAAAAAAAAAAAAAAAAAAAAAAAAAAAAAAAAAAAAAAAAAAAAAAAAAAAAAAAAAAAAAAAAAAAAAAAAAAAAAAAAAAAAAAAAAAAAAAAAAAAAAAAAAAAAAAAAAAAAAAAAAAAAAAAAAAAAAAAAAAAAAAAAAAAAAAAAAAAAAAAAAAAAAAAAAAAAAAAAAAAAAAAAAAAAAAAAAAAAAAAAAAAAAAAAAAAAAAAAAAAAAAAAAAAAAAAAAAAAAAAAAAAAAAAAAAAAAAAAAAAAAAAAAAAAAAAAAAAAAAAAAAAAAAAAAAAAAAAAAAAAAAAAAAAAAAAAAAAAAAAAAAAAAAAAAAAAAAAAAAAAAAAAAAAAAAAAAAAAAAAAAAAAAAAAAAAAAAAAAAAAAAAAAAAAAAAAAAAAAAAAAAAAAAAAAAAAAAAAAAAAAAAAAAAAAAAAAAAAAAAAAAAAAAAAAAAAAAAAAAAAAAAAAAAAAAAAAAAAAAAAAAAAAAAAAAAAAAAAAAAAAAAAAAAAAAAAAAAAAAAAAAAAAAAAAAAAAAAAAAAAAAAAAAAAAAAAAAAAAAAAAAAAAAAAAAAAAAAAAAAAAAAAAAAAAAAAAAAAAAAAAAAAAAAAAAAAAAAAAAAAAAAAAAAAAAAAAAAAAAAAAAAAAAAAAAAAAAAAAAAAAAAAAAAAAAAAAAAAAAAAAAAAAAAAAAAAAAAAAAAAAAAAAAAAAAAAAAAAAAAAAAAAAAAAAAAAAAAAAAAAAAAAAAAAAAAAAAAAAAAAAAAAAAAAAAAAAAAAAAAAAAAAAAAAAAAAAAAAAAAAAAAAAAAAAAAAAAAAAAAAAAAAAAAAAAAAAAAAAAAAAAAAAAAAAAAAAAAAAAAAAAAAAAAAAAAAAAAAAAAAAAAAAAAAAAAAAAAAAAAAAAAAAAAAAAAAAAAAAAAAAAAAAAAAAAAAAAAAAAAAAAAAAAAAAAAAAAAAAAAAAAAAAAAAAAAAAAAAAAAAAAAAAAAAAAAAAAAAAAAAAAAAAAAAAAAAAAAAAAAAAAAAAAAAAAAAAAAAAAAAAAAAAAAAAAAAAAAAAAAAAAAAAAAAAAAAAAAAAAAAAAAAAAAAAAAAAAAAAAAAAAAAAAAAAAAAAAAAAAAAAAAAAAAAAAAAAAAAAAAAAAAAAAAAAAAAAAAAAAAAAAAAAAAAAAAAAAAAAAAAAAAAAAAAAAAAAAAAAAAAAAAAAAAAAAAAAAAAAAAAAAAAAAAAAAAAAAAAAAAAAAAAAAAAAAAAAAAAAAAAAAAAAAAAAAAAAAAAAAAAAAAAAAAAAAAAAAAAAAAAAAAAAAAAAAAAAAAAAAAAAAAAAAAAAAAAAAAAAAAAAAAAAAAAAAAAAAAAAAAAAAAAAAAAAAAAAAAAAAAAAAAAAAAAAAAAAAAAAAAAAAAAAAAAAAAAAAAAAAAAAAAAAAAAAAAAAAAAAAAAAAAAAAAAAAAAAAAAAAAAAAAAAAAAAAAAAAAAAAAAAAAAAAAAAAAAAAAAAAAAAAAAAAAAAAAAAAAAAAAAAAAAAAAAAAAAAAAAAAAAAAAAAAAAAAAAAAAAAAAAAAAAAAAAAAAAAAAAAAAAAAAAAAAAAAAAAAAAAAAAAAAAAAAAAAAAAAAAAAAAAAAAAAAAAAAAAAAAAAAAAAAAAAAAAAAAAAAAAAAAAAAAAAAAAAAAAAAAAAAAAAAAAAAAAAAAAAAAAAAAAAAAAAAAAAAAAAAAAAAAAAAAAAAAAAAAAAAAAAAAAAAAAAAAAAAAAAAAAAAAAAAAAAAAAAAAAAAAAAAAAAAAAAAAAAAAAAAAAAAAAAAAAAAAAAAAAAAAAAAAAAAAAAAAAAAAAAAAAAAAAAAAAAAAAAAAAAAAAAAAAAAAAAAAAAAAAAAAAAAAAAAAAAAAAAAAAAAAAAAAAAAAAAAAAAAAAAAAAAAAAAAAAAAAAAAAAAAAAAAAAAAAAAAAAAAAAAAAAAAAAAAAAAAAAAAAAAAAAAAAAAAAAAAAAAAAAAAAAAAAAAAAAAAAAAAAAAAAAAAAAAAAAAAAAAAAAAAAAAAAAAAAAAAAAAAAAAAAAAAAAAAAAAAAAAAAAAAAAAAAAAAAAAAAAAAAAAAAAAAAAAAAAAAAAAAAAAAAAAAAAAAAAAAAAAAAAAAAAAAAAAAAAAAAAAAAAAAAAAAAAAAAAAAAAAAAAAAAAAAAAAAAAAAAAAAAAAAAAAAAAAAAAAAAAAAAAAAAAAAAAAAAAAAAAAAAAAAAAAAAAAAAAAAAAAAAAAAAAAAAAAAAAAAAAAAAAAAAAAAAAAAAAAAAAAAAAAAAAAAAAAAAAAAAAAAAAAAAAAAAAAAAAAAAAAAAAAAAAAAAAAAAAAAAAAAAAAAAAAAAAAAAAAAAAAAAAAAAAAAAAAAAAAAAAAAAAAAAAAAAAAAAAAAAAAAAAAAPZYQJBaH5DJkg662CfMtAm0oD9OY3e1j1g9m1L9hwSbC8/W3CBIWSQ044Q6gBUFoE+bC5HapHhuFUyhI9HZa7gOrNw=</c2pa:manifest></metadata><defs><style>.cls-1{fill:#1693e8;}</style></defs><path class="cls-1" d="M1003.87,37a.61.61,0,0,1,.19,0,1.79,1.79,0,0,0,0-.24c-.23-3.23-.36-6.5-2-9.41-6.92-12.24-16.15-21.25-31.18-22.06h-.06a1.76,1.76,0,0,0,0,.23l-1.93-.06A1.71,1.71,0,0,1,967.3,5H835.82c-1,.71-2.26,1-3.23,1.83-6.49,5.72-12.71,11.72-19,17.63-6,5.57-12.14,10.88-17.82,16.72-1.31,1.35-2.4,1.28-3.87.14-2.79-2.15-5-4.89-7.6-7.21-8.82-7.84-17.34-16-25.95-24.07-2.14-2-4.18-4-7-5H43a2.59,2.59,0,0,1-2.05.45H39.43v-.2h-.62c-3.61.43-7.27.54-10.64,2.25C12.91,15.29,4.37,27.16,4.4,44.86q.2,91.48,0,183c0,.75,0,1.51,0,2.25-.08,1.69.78,2.42,2.39,2.53,2.16.14,4.33.09,6.49.09H747.67a7.18,7.18,0,0,1,4.77,1.85c4.46,3.76,8.58,7.9,12.82,11.88C772.18,253,779.19,259.37,786,266c2.17,2.11,4.31,4.44,7.33,5.51h.5a19.53,19.53,0,0,0,7-5.07q1.7-1.83,3.56-3.5c9.59-8.65,18.86-17.62,28.25-26.47a12.43,12.43,0,0,1,9.26-3.81q77.61.14,155.22.06c1.41,0,2.83,0,4.24,0a3.46,3.46,0,0,0,2.9-1.17V38.5a1,1,0,0,1-.14-.22A1.48,1.48,0,0,1,1003.87,37ZM150,186.52c0,.58,0,1.16,0,1.75,0,.84-.39,1.21-1.22,1.18-.58,0-1.16,0-1.75,0H69.27c-3.17,0-3,.42-3-3.16V51.11c0-3.33-.07-3,3-3h33.73c.41,0,.83,0,1.25,0,1.14-.09,1.72.34,1.64,1.56,0,.66,0,1.33,0,2q0,52.23,0,104.45c0,3.79-.34,3.28,3.36,3.29,12.66,0,25.32,0,38,0,3.12,0,2.77-.19,2.77,2.86Q150,174.4,150,186.52ZM300.84,147c-9.53,22.56-26.65,36.27-50.34,41.93a71.67,71.67,0,0,1-8.37,1.41c-2.81.32-5.65.39-8,.55-22.2-.45-41-7.8-55.74-24.19a68.89,68.89,0,0,1-17.08-37.64c-2.08-15.34-.18-30.14,6.85-44,10.4-20.5,27.27-32.82,49.6-37.52,16.71-3.52,33.07-1.87,48.52,5.56,21.15,10.18,34,27,38.67,50A73.37,73.37,0,0,1,300.84,147Zm149.33-1.88c-7.88,21.07-23.12,34.33-44.46,40.81a84.32,84.32,0,0,1-24.4,3.47c-18.16.05-36.32,0-54.49,0-.41,0-.83,0-1.24,0-1,.06-1.39-.37-1.37-1.32,0-.66,0-1.33,0-2V51.4c0-3.67-.23-3.28,3.17-3.28h30.49c7.75,0,15.5-.07,23.25,0,12.54.14,24.7,2.23,36.08,7.77,20.09,9.77,31.94,25.88,36.12,47.66A76,76,0,0,1,450.17,145.16Zm156.35,4.12C596,171,578.92,184.36,555.25,189a79.78,79.78,0,0,1-43.54-3.35c-19.39-7.14-32.71-20.54-39.5-40a80.27,80.27,0,0,1,.24-54.87c7.14-19.8,20.93-33.27,40.94-39.8s39.78-6,59.11,2.15c17,7.14,27.93,20,32.62,38,.22.81.39,1.62.58,2.43s-.09,1.11-.85,1.13h-1.5c-12.58,0-25.16,0-37.74,0a3.69,3.69,0,0,1-3.49-1.75,22.28,22.28,0,0,0-13.25-8.78,35.49,35.49,0,0,0-20,.54C518.6,88,512.4,95.31,509.57,105.51a49.92,49.92,0,0,0,.5,28.6c3.7,11.9,12.1,18.6,24.18,20.82a43.42,43.42,0,0,0,19.08-.36c9-2.39,15.28-8.14,19.52-16.28a1.05,1.05,0,0,0,0-1.21H537.12a14.57,14.57,0,0,0-1.75,0c-1.38.16-1.67-.54-1.67-1.76q.06-12.36,0-24.74c0-1.32.48-1.82,1.75-1.68a10.26,10.26,0,0,0,1.24,0h67.73c.58,0,1.16,0,1.75,0,.94,0,1.38.35,1.33,1.31,0,.5,0,1,0,1.5q0,16.49,0,33A10,10,0,0,1,606.52,149.28Zm109.78,37.2c0,.58,0,1.17,0,1.75,0,.82-.34,1.24-1.19,1.22-.58,0-1.16,0-1.75,0H628.14c-.5,0-1,0-1.5,0-.93,0-1.39-.34-1.35-1.31,0-.66,0-1.33,0-2V51.45c0-.67,0-1.34,0-2,0-1,.39-1.38,1.34-1.33.5,0,1,0,1.5,0h85.7c2.45,0,2.46,0,2.46,2.47q0,13.24,0,26.49c0,2.62.21,2.51-2.65,2.51H667.92c-3.39,0-3.08-.35-3.09,3.07q0,8.75,0,17.49c0,2.44,0,2.46,2.44,2.46H707c3.65,0,3.24-.33,3.25,3.17,0,7.91,0,15.82,0,23.74,0,.58,0,1.16,0,1.75,0,.82-.32,1.24-1.17,1.23-.67,0-1.33,0-2,0q-19.62,0-39.23,0c-3.38,0-3-.32-3,3.14q0,10,0,20c0,2.3,0,2.33,2.33,2.33h46c3.56,0,3.14-.37,3.15,3.26Q716.32,173.86,716.3,186.48Zm94.53,3q-16.62,0-33.23,0h-.75c-2.44,0-2.46,0-2.46-2.46V80.3c0-.66,0-1.33,0-2,0-1,.45-1.34,1.37-1.3.41,0,.83,0,1.25,0h34.22c.5,0,1,0,1.5,0,.85,0,1.21.38,1.2,1.2,0,.58,0,1.17,0,1.75q0,53.22,0,106.44C813.93,189.88,814.16,189.45,810.83,189.45ZM943.69,76.9c0,2.52,0,2.53-2.64,2.54H908.81c-.58,0-1.17,0-1.75,0-.95,0-1.36.37-1.31,1.32,0,.75,0,1.5,0,2.25V186.48c0,3.25.28,3-3,3H869.07c-.42,0-.84,0-1.25,0-1.17.12-1.72-.34-1.62-1.55,0-.67,0-1.34,0-2q0-51.61,0-103.22c0-3.57.43-3.24-3.16-3.25h-32c-2.35,0-2.37,0-2.37-2.31,0-5.67,0-11.33,0-17v-9c0-3.33-.16-3,2.92-3H941c2.63,0,2.64,0,2.65,2.55,0,4.5,0,9,0,13.49C943.69,68.4,943.7,72.65,943.69,76.9Z"/><path class="cls-1" d="M401.32,89a36.79,36.79,0,0,0-18.39-6.48c-5.49-.54-11-.26-16.49-.3-2.68,0-2.69,0-2.69,2.74q0,16.75,0,33.5t0,33.75c0,2.55,0,2.56,2.62,2.56,3.83,0,7.66,0,11.5,0a48.55,48.55,0,0,0,11.39-1.3c12.35-3.1,20.61-10.54,23.86-23a46.73,46.73,0,0,0-.35-24.94A29.89,29.89,0,0,0,401.32,89Z"/><path class="cls-1" d="M247.52,84.67a36.55,36.55,0,0,0-16.64-2.6c-13.43.72-23.51,8.19-27.66,20.84a48.1,48.1,0,0,0,0,30.46c2.94,9,8.78,15.6,17.86,18.92A36.53,36.53,0,0,0,239.27,154c9.93-1.49,17.54-6.43,22.37-15.36,3.42-6.32,4.5-13.18,4.63-20.22a47.93,47.93,0,0,0-2.91-16.92C260.33,93.74,255.21,88,247.52,84.67Z"/></svg>